<svg width="229" height="110" viewBox="0 0 229 110" fill="none" xmlns="http://www.w3.org/2000/svg">
<path d="M29.9883 34.4316L164.036 53.7112L182.025 71.851L29.9883 34.4316Z" fill="#407BFF"/>
<path opacity="0.6" d="M29.9883 34.4316L164.036 53.7112L182.025 71.851L29.9883 34.4316Z" fill="white"/>
<path d="M29.9883 34.4316L164.036 53.7112L157.815 79.9412L29.9883 34.4316Z" fill="#407BFF"/>
<path opacity="0.2" d="M29.9883 34.4316L164.036 53.7112L157.815 79.9412L29.9883 34.4316Z" fill="black"/>
<path d="M155.062 4.06525L162.845 40.5075C163.267 42.481 161.996 44.4404 160.021 44.8617L90.59 59.6667C88.6149 60.0879 86.6539 58.8177 86.2323 56.8442L78.4489 20.4019C78.2284 19.3702 78.4712 18.3397 79.0346 17.5319C79.5508 16.7998 80.3311 16.2487 81.2737 16.0478L150.704 1.24279C151.647 1.04185 152.585 1.22633 153.355 1.68402C154.199 2.19164 154.842 3.03356 155.062 4.06525Z" fill="#407BFF"/>
<path opacity="0.4" d="M155.062 4.06525L162.845 40.5075C163.267 42.481 161.996 44.4404 160.021 44.8617L90.59 59.6667C88.6149 60.0879 86.6539 58.8177 86.2323 56.8442L78.4489 20.4019C78.2284 19.3702 78.4712 18.3397 79.0346 17.5319C79.5508 16.7998 80.3311 16.2487 81.2737 16.0478L150.704 1.24279C151.647 1.04185 152.585 1.22633 153.355 1.68402C154.199 2.19164 154.842 3.03356 155.062 4.06525Z" fill="black"/>
<path d="M153.355 1.6845L130.154 30.1394C125.724 35.574 118.104 37.1985 111.839 34.0447L79.0342 17.5318C79.5504 16.7997 80.3307 16.2486 81.2733 16.0477L150.704 1.24268C151.648 1.04175 152.585 1.22682 153.355 1.6845Z" fill="#407BFF"/>
<path d="M29.9883 34.4316L140.552 60.6851L157.815 79.9412L29.9883 34.4316Z" fill="#407BFF"/>
<path opacity="0.6" d="M29.9883 34.4316L140.552 60.6851L157.815 79.9412L29.9883 34.4316Z" fill="white"/>
<path d="M70.3171 59.7484L70.0195 60.2559L82.3207 67.457L82.6182 66.9496L70.3171 59.7484Z" fill="#407BFF"/>
<path d="M88.0534 70.1293L87.7559 70.6367L92.1813 73.2274L92.4788 72.72L88.0534 70.1293Z" fill="#407BFF"/>
<path d="M29.9883 34.4316L140.552 60.6851L119.061 86.569L29.9883 34.4316Z" fill="#407BFF"/>
<path d="M177.873 95.946C177.729 95.946 177.583 95.919 177.441 95.8626L159.428 88.7371C158.824 88.4986 158.528 87.8159 158.768 87.2119C159.006 86.6091 159.687 86.3118 160.294 86.5521L178.307 93.6776C178.911 93.9161 179.207 94.5988 178.967 95.2028C178.784 95.664 178.342 95.946 177.873 95.946Z" fill="#407BFF"/>
<path opacity="0.3" d="M177.873 95.946C177.729 95.946 177.583 95.919 177.441 95.8626L159.428 88.7371C158.824 88.4986 158.528 87.8159 158.768 87.2119C159.006 86.6091 159.687 86.3118 160.294 86.5521L178.307 93.6776C178.911 93.9161 179.207 94.5988 178.967 95.2028C178.784 95.664 178.342 95.946 177.873 95.946Z" fill="black"/>
<path d="M176.812 85.6256C176.669 85.6256 176.522 85.5992 176.38 85.5427L166.706 81.7156C166.102 81.4771 165.807 80.7944 166.046 80.1904C166.284 79.5876 166.966 79.2903 167.572 79.5306L177.246 83.3578C177.85 83.5963 178.146 84.279 177.906 84.883C177.723 85.3442 177.281 85.6256 176.812 85.6256Z" fill="#407BFF"/>
<path opacity="0.5" d="M176.812 85.6256C176.669 85.6256 176.522 85.5992 176.38 85.5427L166.706 81.7156C166.102 81.4771 165.807 80.7944 166.046 80.1904C166.284 79.5876 166.966 79.2903 167.572 79.5306L177.246 83.3578C177.85 83.5963 178.146 84.279 177.906 84.883C177.723 85.3442 177.281 85.6256 176.812 85.6256Z" fill="white"/>
<path d="M156.588 95.7682C156.445 95.7682 156.298 95.7411 156.156 95.6847L138.593 88.7367C137.989 88.4982 137.693 87.8149 137.933 87.2115C138.171 86.6081 138.854 86.3126 139.459 86.5517L157.022 93.4997C157.626 93.7383 157.922 94.421 157.682 95.025C157.5 95.4867 157.057 95.7682 156.588 95.7682Z" fill="#407BFF"/>
<path opacity="0.3" d="M156.588 95.7682C156.445 95.7682 156.298 95.7411 156.156 95.6847L138.593 88.7367C137.989 88.4982 137.693 87.8149 137.933 87.2115C138.171 86.6081 138.854 86.3126 139.459 86.5517L157.022 93.4997C157.626 93.7383 157.922 94.421 157.682 95.025C157.5 95.4867 157.057 95.7682 156.588 95.7682Z" fill="black"/>
</svg>
