<svg width="100" height="129" viewBox="0 0 100 129" fill="none" xmlns="http://www.w3.org/2000/svg">
<path d="M69.8613 112.186C69.8613 112.592 69.8326 112.938 69.7892 113.228C69.7457 113.445 69.717 113.72 69.6735 114.039C69.5867 114.849 69.4998 115.978 69.4277 117.323L66.4612 115.615L62.9448 113.59L62.5974 113.387L59.6744 111.694L54.1322 108.497L49.7773 105.978C49.8348 104.488 49.9363 102.984 50.1247 101.507C50.1681 101.088 50.2403 100.668 50.2984 100.263V100.248C50.3418 99.9738 50.3853 99.7127 50.4434 99.4527C50.5449 98.9169 50.6458 98.3964 50.7761 97.8753C50.7761 97.8612 50.7761 97.8612 50.7902 97.8471C51.6728 94.1999 53.2355 91.0022 55.8693 88.9917C55.8693 88.9917 56.3323 88.659 57.0412 88.2241C57.7795 87.7611 58.7924 87.1678 59.7759 86.7482C59.7906 86.7341 59.7906 86.7341 59.8046 86.7341C61.0487 86.1983 62.2641 85.9096 62.872 86.4302C63.1613 86.676 63.5956 87.5586 64.1161 88.8755V88.8896C64.203 89.1214 64.3045 89.3532 64.3914 89.6132C64.3914 89.6132 64.3914 89.5991 64.406 89.6132C64.7822 90.6554 65.2165 91.8854 65.6501 93.2451C65.896 94.0268 66.1566 94.8513 66.4025 95.7045V95.7192C66.4746 95.907 66.5327 96.1101 66.5762 96.3125C66.6777 96.6306 66.7786 96.978 66.8655 97.3107L66.8796 97.3248C66.9083 97.4404 66.9517 97.5707 66.9811 97.6863C66.9811 97.6863 66.9811 97.6863 66.9811 97.701C66.9958 97.7438 67.0098 97.8019 67.0245 97.8459V97.86C67.0245 97.8887 67.0245 97.9028 67.0392 97.9322C67.0826 98.0631 67.126 98.2221 67.1548 98.3518C67.227 98.5976 67.2997 98.8441 67.3719 99.1041C67.3719 99.1041 67.3719 99.1188 67.3719 99.1328C67.43 99.3065 67.4735 99.4943 67.5163 99.6827C67.545 99.7267 67.5597 99.7842 67.5597 99.8423C67.5744 99.8711 67.5884 99.9004 67.5884 99.9292C67.6319 100.088 67.6753 100.262 67.7187 100.421C67.7187 100.435 67.7187 100.435 67.7187 100.435C67.7187 100.45 67.7187 100.45 67.7334 100.464C67.7334 100.478 67.7334 100.478 67.7481 100.493C67.7915 100.695 67.8496 100.898 67.893 101.086C67.9365 101.274 67.9946 101.463 68.038 101.65C68.1102 101.925 68.1683 102.186 68.2405 102.446V102.461C68.4429 103.285 68.6313 104.096 68.7903 104.891C68.8919 105.311 68.9787 105.717 69.0509 106.122C69.2968 107.279 69.4852 108.364 69.6154 109.348C69.6154 109.363 69.6154 109.363 69.6154 109.363C69.6589 109.637 69.6876 109.897 69.717 110.158C69.7457 110.303 69.7604 110.433 69.7604 110.578C69.8038 110.868 69.8185 111.143 69.8326 111.402C69.8467 111.68 69.8613 111.94 69.8613 112.186Z" fill="url(#paint0_linear_1817_866)"/>
<path d="M69.8613 112.187C69.8613 112.592 69.8326 112.939 69.7892 113.229C69.7457 113.446 69.717 113.721 69.6735 114.04C69.5867 114.85 69.4998 115.979 69.4277 117.324L66.4612 115.616L62.9448 113.591L62.5974 113.388L59.6744 111.695C59.4138 110.132 59.1967 107.036 59.3704 103.809C59.3704 103.636 59.385 103.462 59.3991 103.289L59.4425 102.681C59.4572 102.494 59.4713 102.32 59.486 102.131C59.5006 102.103 59.5006 102.087 59.486 102.087C59.5006 101.987 59.5006 101.9 59.5294 101.798V101.783C59.5147 101.769 59.5294 101.741 59.5294 101.711C59.5441 101.479 59.5728 101.234 59.6162 101.002C59.7178 100.163 59.8474 99.3522 60.0212 98.5711C60.0646 98.4114 60.0933 98.2524 60.1368 98.0934C60.2383 97.6738 60.3539 97.2683 60.4982 96.8921C60.5417 96.7472 60.5851 96.6175 60.6432 96.4725C60.8457 95.9367 61.0775 95.4303 61.338 94.9966C62.0035 93.8822 63.6097 93.2602 65.6501 93.2461C65.896 94.0278 66.1566 94.8523 66.4025 95.7055V95.7202C66.4746 95.908 66.5327 96.111 66.5762 96.3135C66.6777 96.6316 66.7786 96.979 66.8655 97.3117L66.8796 97.3258C66.9083 97.4414 66.9517 97.5717 66.9811 97.6873C66.9811 97.6873 66.9811 97.6873 66.9811 97.7019C66.9958 97.7447 67.0098 97.8029 67.0245 97.8469V97.861C67.0679 98.0059 67.1114 98.1356 67.1548 98.2806C67.227 98.5552 67.2997 98.8304 67.3719 99.1051C67.3719 99.1051 67.3719 99.1197 67.3719 99.1338C67.43 99.3075 67.4735 99.4953 67.531 99.6696C67.5456 99.7277 67.5597 99.7852 67.5744 99.8433C67.5744 99.8721 67.5891 99.9014 67.6031 99.9302C67.6319 100.103 67.6753 100.263 67.7187 100.422C67.7187 100.436 67.7187 100.436 67.7187 100.436C67.7187 100.451 67.7187 100.451 67.7334 100.465C67.7334 100.479 67.7334 100.479 67.7481 100.493C67.7915 100.696 67.8496 100.899 67.893 101.087C67.893 101.101 67.9077 101.101 67.9077 101.101C67.9512 101.289 67.9946 101.478 68.038 101.651C68.1102 101.926 68.1683 102.187 68.2405 102.447V102.462C68.4429 103.286 68.6313 104.097 68.7903 104.892C68.8919 105.312 68.9787 105.718 69.0509 106.122C69.2968 107.28 69.4852 108.365 69.6154 109.349C69.6154 109.364 69.6154 109.364 69.6154 109.364C69.6589 109.638 69.6876 109.898 69.717 110.159C69.7457 110.304 69.7604 110.434 69.7604 110.579C69.8038 110.869 69.8185 111.143 69.8326 111.403C69.8467 111.681 69.8613 111.941 69.8613 112.187Z" fill="#9894A3"/>
<path d="M62.9453 113.592L62.5979 113.389C62.5832 112.623 62.5691 111.885 62.5398 111.19C62.4964 109.93 62.4242 108.845 62.3373 108.021L62.6701 107.992C62.7569 108.845 62.8291 110.004 62.8725 111.349C62.9019 112.058 62.9306 112.81 62.9453 113.592Z" fill="#817C94"/>
<path d="M61.8945 94.998C61.8945 94.998 59.7819 102.889 60.4816 109.013C60.7599 111.449 66.8354 112.634 66.8354 112.634C66.8354 112.634 72.0515 107.403 72.0656 103.945C72.0796 100.486 71.9114 99.668 71.9114 99.668L61.8945 94.998Z" fill="url(#paint1_linear_1817_866)"/>
<path d="M67.138 97.0508C67.138 97.0508 65.0253 104.942 65.7251 111.067C66.0034 113.502 72.0788 114.687 72.0788 114.687C72.0788 114.687 77.295 109.456 77.3096 105.998C77.3243 102.54 77.1555 101.721 77.1555 101.721L67.138 97.0508Z" fill="#817C94"/>
<path d="M89.54 111.58C89.54 112.419 89.5254 113.33 89.5113 114.315C89.4679 117.093 88.9761 122.36 88.3247 128.234L85.0836 126.368L83.3618 125.369L83.0437 125.196L69.4279 117.324L66.4614 115.617C66.4179 114.764 66.3745 113.707 66.3598 112.535V112.26C66.3164 109.525 66.3745 106.139 66.7507 102.941C66.8663 101.929 67.0113 100.945 67.199 100.004C67.199 99.9611 67.2137 99.903 67.2278 99.8589C67.2278 99.8302 67.2278 99.7867 67.2418 99.758C67.2565 99.6571 67.2706 99.5549 67.2999 99.454C67.3146 99.3378 67.3434 99.2369 67.3721 99.1353C67.3721 99.1213 67.3721 99.1066 67.3721 99.1066C67.4877 98.6289 67.6033 98.1665 67.7336 97.7175C67.7624 97.6019 67.7917 97.4863 67.8351 97.3707C67.8786 97.197 67.9367 97.0233 68.0088 96.8496C68.0523 96.6765 68.1245 96.5028 68.1826 96.3291C68.226 96.1994 68.2982 96.0545 68.3709 95.8954C68.4431 95.7505 68.53 95.6055 68.6168 95.4318C68.6602 95.3596 68.7184 95.2728 68.7618 95.1859C68.7905 95.1278 68.834 95.0703 68.8774 95.0122C68.9496 94.8972 69.0223 94.7663 69.1233 94.6361C69.8468 93.5651 70.9606 92.2629 72.3931 91.2506C74.0862 90.0634 76.2129 89.2389 78.731 89.557C78.9047 89.5857 79.0784 89.6151 79.2662 89.6438C79.4112 89.6726 79.5555 89.7019 79.7005 89.7453C79.8742 89.7741 80.0479 89.8322 80.2216 89.8903C80.4675 89.9625 80.7134 90.0493 80.9739 90.1502C81.4804 90.324 81.9868 90.5698 82.5079 90.8738C82.7391 90.9894 82.971 91.1344 83.2022 91.2793H83.2168C83.3184 91.3515 83.434 91.4096 83.5349 91.4965C83.7954 91.6696 84.0848 91.8586 84.36 92.0751C84.505 92.176 84.6493 92.2922 84.7943 92.4078C84.9827 92.5528 85.1558 92.6978 85.3295 92.8568C85.5319 93.0158 85.7344 93.2036 85.9374 93.4067C86.1546 93.5944 86.3717 93.7975 86.5888 94.014C86.6176 94.0428 86.6469 94.0721 86.6757 94.1009C87.2543 94.6795 87.7173 95.6783 88.0647 96.8937C89.4391 101.422 89.4972 108.961 89.4972 108.961C89.5254 109.757 89.54 110.625 89.54 111.58Z" fill="url(#paint2_linear_1817_866)"/>
<path d="M89.54 111.579C89.54 112.419 89.5254 113.33 89.5113 114.314C89.4679 117.092 88.9761 122.359 88.3247 128.234L85.0836 126.367C85.4022 122.069 85.59 118.322 85.5178 115.992C85.431 112.997 85.3301 109.712 85.0836 106.601C85.0255 105.892 84.968 105.184 84.8952 104.503C84.664 102.202 84.3306 100.046 83.8536 98.2089C83.5642 97.1379 83.2456 96.1825 82.8554 95.3721C82.8407 95.3433 82.8266 95.3146 82.8119 95.2852C82.6963 95.054 82.566 94.8222 82.4504 94.6198C82.0162 93.8962 81.5097 93.3322 80.9458 92.9708C80.7721 92.8551 80.6277 92.6961 80.5115 92.4931C80.1494 91.9144 80.0632 90.9884 80.2222 89.8887C80.4681 89.9608 80.714 90.0477 80.9745 90.1486C81.4663 90.3364 81.9874 90.5823 82.5085 90.8722C82.7397 90.9878 82.9716 91.1328 83.2028 91.2777H83.2174C83.319 91.3499 83.4346 91.408 83.5355 91.4949C83.7961 91.6679 84.0854 91.8569 84.3606 92.0735C84.5056 92.1744 84.6499 92.2906 84.7949 92.4062C84.9833 92.5512 85.1564 92.6961 85.3301 92.8552C85.5325 93.0142 85.735 93.202 85.938 93.405C86.1552 93.5928 86.3723 93.7959 86.5895 94.0124C86.6182 94.0411 86.6476 94.0705 86.6763 94.0992C87.2549 94.6779 87.7179 95.6767 88.0654 96.892C89.4397 101.421 89.4978 108.959 89.4978 108.959C89.5254 109.756 89.54 110.624 89.54 111.579Z" fill="#9894A3"/>
<path d="M83.8249 116.515C83.7961 118.482 83.6224 121.608 83.3618 125.37L83.0438 125.196C83.275 121.506 83.4487 118.438 83.4921 116.5C83.5937 110.466 83.1013 103.232 82.0309 98.7605C81.8572 98.0082 81.6547 97.3427 81.4523 96.7781C81.322 96.4454 81.1917 96.1414 81.0614 95.8809C80.9746 95.7072 80.8877 95.5628 80.8009 95.4178L81.0902 95.2441C81.1917 95.4032 81.2926 95.5769 81.3795 95.7799C81.4951 96.0111 81.6113 96.2576 81.7122 96.5323C81.944 97.1396 82.1606 97.8491 82.3489 98.659C83.4346 103.131 83.9264 110.307 83.8249 116.515Z" fill="#817C94"/>
<path d="M72.225 78.9856L84.3809 83.6176V91.6442C84.3809 93.7703 83.0261 95.4224 81.4052 96.7986L76.561 99.5956C75.1456 100.413 73.5425 100.977 71.9791 100.754C60.7101 99.1473 58.57 94.0853 58.1901 93.6241C57.4556 92.7317 57.0366 91.599 57.0366 90.4069V74.7285L72.225 78.9856Z" fill="#323142"/>
<path d="M38.1891 74.0969C36.6324 75.4357 29.9018 66.1136 31.7001 62.448C33.4983 58.7824 42.5262 40.4722 46.4493 34.2395C50.3724 28.0068 55.6338 27.9756 58.5294 28.972C61.4249 29.9684 52.3028 50.2897 48.5669 58.1861C44.8303 66.0824 38.1891 74.0969 38.1891 74.0969Z" fill="url(#paint3_linear_1817_866)"/>
<path d="M47.934 45.3325L48.2412 45.4727L38.2308 67.4184L37.9236 67.2783L47.934 45.3325Z" fill="#817C94"/>
<path d="M35.0667 72.0723C36.8222 71.4594 41.3863 63.4701 48.7713 44.9824C48.7713 44.9824 50.0105 46.8908 52.2002 50.2175C50.8307 53.332 49.5224 56.1664 48.567 58.1867C44.8311 66.0836 38.1898 74.0974 38.1898 74.0974C37.6192 74.5873 36.353 73.643 35.0667 72.0723Z" fill="#A8A4B5"/>
<path d="M50.2634 57.1116C46.574 53.6918 46.4027 44.352 47.4615 38.701C48.5569 32.8524 53.4856 29.237 58.2956 29.2559C63.6297 29.2773 50.2634 57.1116 50.2634 57.1116Z" fill="#817C94"/>
<path d="M31.5951 62.8339C32.1285 62.4884 36.6076 63.8236 38.2767 67.4078C39.4083 69.8373 39.3318 72.7487 38.2492 74.0314C37.4681 74.9568 35.3421 75.5959 34.0344 74.3115C32.7267 73.0258 29.8201 66.5234 31.5951 62.8339Z" fill="#817C94"/>
<path d="M13.3534 56.7939C13.6537 56.608 14.5675 56.6796 14.5675 56.6796C14.5675 56.6796 17.2178 57.482 19.1249 58.2319C21.9238 59.3323 29.3999 62.037 31.8808 62.8303C32.8288 63.133 34.8656 64.0114 35.9647 64.9661C37.8156 66.5735 39.3631 69.8838 38.5655 72.5347C37.7012 75.407 36.536 75.2008 34.9696 75.1733C30.3621 75.092 11.0034 65.0016 11.0034 65.0016C10.957 63.1318 11.5239 59.5023 13.3534 56.7939Z" fill="url(#paint4_linear_1817_866)"/>
<path d="M38.2814 68.4248C38.7811 69.7673 38.9585 71.231 38.5664 72.5363C37.7021 75.4086 36.5376 75.2024 34.9705 75.1749C30.3636 75.093 11.0044 65.0032 11.0044 65.0032C10.9799 64.024 11.131 62.5603 11.5359 61C16.6823 63.3316 24.9328 67.073 27.6467 68.3251C31.5441 70.1245 36.0709 71.9075 38.2814 68.4248Z" fill="#9F9BAB"/>
<path d="M13.5191 56.7842C14.6164 55.9719 16.0563 57.4215 14.7375 60.6467C13.3834 63.9582 10.8383 66.573 10.5111 64.0279C10.1838 61.4828 13.5191 56.7842 13.5191 56.7842Z" fill="#817C94"/>
<path d="M13.5587 61.936C14.3024 60.8944 14.6804 58.3188 14.5391 57.3114C14.3978 56.304 12.9819 52.7772 12.9183 52.4115C12.8547 52.0457 11.3225 48.9856 11.3225 48.9856C11.3225 48.9856 9.74688 45.9739 8.93461 46.336C8.12235 46.6981 8.26974 48.5348 8.38718 49.1746C8.50461 49.8144 9.82394 53.2537 9.82394 53.2537L8.24834 52.1319C8.24834 52.1319 2.71293 46.3623 2.0181 46.3036C1.32388 46.2448 0.306104 47.1244 1.18749 48.188C2.06887 49.2517 5.63417 53.3656 5.63417 53.3656C5.63417 53.3656 4.28241 53.0629 3.92338 53.2647C3.56434 53.4666 3.53132 55.6348 3.53132 55.6348C3.53132 55.6348 3.03955 56.9034 3.07992 57.731C3.12029 58.5585 3.12029 58.5585 3.12029 58.5585C3.12029 58.5585 0.114058 58.5487 0.41927 59.2099C1.15875 60.8088 4.10076 62.7306 4.10076 62.7306C4.10076 62.7306 6.84461 63.9636 8.25691 64.4352C9.51996 64.8566 10.5139 65.0322 11.5023 64.3887C12.6076 63.6688 13.5587 61.936 13.5587 61.936Z" fill="#B9B4C4"/>
<path d="M9.03296 50.9601C9.91067 51.8501 12.6313 51.6128 11.912 50.1797C13.2625 52.6024 14.1659 55.953 14.2197 56.1231C13.1616 54.0539 10.6447 55.4117 9.83789 53.3804C9.16875 51.6953 9.03296 50.9601 9.03296 50.9601Z" fill="#323142"/>
<path d="M2.33386 49.5366C2.72226 49.5604 4.29786 48.7763 4.12598 48.0117C5.87529 49.7152 8.6118 52.6058 9.4834 53.0731C7.56894 53.3184 7.74021 55.6078 6.52548 54.6426C5.31136 53.6774 2.33386 49.5366 2.33386 49.5366Z" fill="#323142"/>
<path d="M7.20148 61.3282C7.20148 61.3282 8.01679 61.6144 8.73119 61.3722C9.4456 61.13 9.1355 59.7275 9.1355 59.7275C9.1355 59.7275 9.65723 59.0798 9.63399 58.5972C9.61075 58.114 9.28352 57.7843 9.28352 57.7843C9.28352 57.7843 9.96 57.4748 10.0695 56.8815C10.179 56.2882 9.73675 55.7225 9.73675 55.7225L5.40324 53.096C5.40324 53.096 3.87595 51.7896 2.76581 52.4312C1.65628 53.0728 -0.237982 56.0693 0.0250263 57.9232C0.286812 59.7771 2.7542 59.8248 7.20148 61.3282Z" fill="#D7CFDE"/>
<path d="M2.76529 52.4314C3.87482 51.7892 5.40272 53.0963 5.40272 53.0963L9.03223 55.2964C7.77285 54.533 7.4866 55.0089 7.36978 55.2964C7.25295 55.5838 6.97282 56.4915 7.01931 56.5631C7.39302 56.8444 7.39302 56.8444 7.39302 56.8444C7.39302 56.8444 6.57586 58.1521 6.87924 58.899C6.24863 58.7357 6.10856 60.5186 6.41255 60.8061C6.71348 61.0905 7.19302 61.3235 7.20158 61.3278C5.97706 61.1676 3.22158 60.5406 3.22158 60.5406C1.08877 60.1045 0.287519 59.7767 0.0245104 57.9222C-0.239109 56.0689 1.65515 53.073 2.76529 52.4314Z" fill="#323142"/>
<path d="M74.9101 35.0785C87.0336 41.1418 89.6049 44.0147 91.9041 46.1077C94.1128 48.1182 94.8951 52.1747 93.8736 58.408C92.8522 64.6413 86.6072 84.6091 80.9611 88.942C75.3144 93.2749 66.0382 90.4564 63.2222 89.1065C60.4061 87.7566 58.1137 86.1969 53.8964 77.0418C49.6791 67.8867 48.1261 51.2976 47.4264 45.8093C46.7266 40.321 46.9566 36.1874 50.013 33.4026C53.0688 30.6178 56.9619 29.2465 62.4717 30.8961C67.9808 32.5457 74.9101 35.0785 74.9101 35.0785Z" fill="url(#paint5_linear_1817_866)"/>
<path d="M64.3209 38.6936C64.3209 38.6936 63.7667 35.373 66.5381 32.1777C70.8893 33.6072 75.8278 34.3797 75.8278 34.3797C87.9512 40.4423 90.5226 43.3152 92.8218 45.4089C93.5741 46.0933 94.1558 47.0218 94.5625 48.1858C94.4004 48.0952 93.3154 48.6879 93.1343 48.5552C88.1843 44.9128 84.6263 40.435 81.4127 41.2699C78.1997 42.1054 76.4627 47.8078 68.2898 46.2089C60.1176 44.6107 60.2577 41.7836 64.3209 38.6936Z" fill="#9894A3"/>
<path d="M59.7071 86.678C66.5392 91.1595 73.7059 90.7375 76.7433 85.5409C81.0218 78.2213 79.8254 70.8773 82.1809 56.0296C82.1809 56.0296 85.9902 50.7052 92.0076 46.209C94.1349 48.2519 94.8793 52.2735 93.8743 58.4058C92.8529 64.6397 86.6086 84.6076 80.9618 88.9405C75.3157 93.2728 66.0389 90.4555 63.2229 89.1044C62.0198 88.5264 60.9108 87.9092 59.7071 86.678Z" fill="#9894A3"/>
<path d="M93.4336 47.5816C91.1748 45.4317 91.3063 45.4066 91.3063 45.4066C91.3063 45.4066 88.0499 43.883 84.8999 48.1829C80.7591 53.8333 80.8526 69.1667 85.0559 68.6682C89.2579 68.1703 93.4336 47.5816 93.4336 47.5816Z" fill="#817C94"/>
<path d="M62.5961 32.8461C62.62 32.5617 62.0285 40.5535 62.4658 42.1658C62.9038 43.7781 68.3505 45.7604 70.2827 45.35C72.2149 44.939 77.5796 41.2856 78.431 40.1033C79.2825 38.9216 79.0935 37.3301 79.0935 37.3301C78.7295 36.894 76.9038 27.0636 76.9307 26.3138C76.9576 25.5639 69.4924 26.6208 69.4924 26.6208L62.5961 32.8461Z" fill="#323142"/>
<path d="M86.6436 8.00527C86.6436 8.00527 84.2012 5.53789 73.6234 0.293625C72.3787 -0.323526 70.3933 0.0667058 68.0905 1.14076L81.1106 8.8524C83.4134 7.77835 85.4478 7.29759 86.6436 8.00527Z" fill="#DBD3E2"/>
<path d="M55.0932 25.9596C55.6889 18.755 57.3642 7.92026 62.8373 4.2094C63.6189 3.68216 64.4135 3.16715 65.208 2.68945C64.5193 3.08641 63.8367 3.4901 63.1412 3.88706C62.2788 4.38922 61.3913 4.95438 60.5167 5.54401C57.4199 7.42421 56.0486 15.082 55.3972 21.3428V21.3618C55.273 22.9808 55.1611 24.5197 55.0932 25.9596Z" fill="url(#paint6_linear_1817_866)"/>
<path d="M67.7519 40.3692C67.7678 40.4622 67.7959 40.5435 67.8326 40.6182C67.9727 40.9637 68.2889 41.165 68.7384 41.2347C68.7966 41.2481 68.8479 41.2579 68.8816 41.2628C68.8938 41.2628 68.9067 41.2696 68.9067 41.2696H68.9317C69.0125 41.2567 69.0804 41.2628 69.155 41.2818C69.155 41.2818 69.155 41.2818 69.1611 41.2818C70.0052 41.2818 72.9784 40.3478 72.9784 40.3478L73.0738 40.2665C73.3038 40.1484 73.4738 39.8181 73.7038 39.6878C74.554 39.1912 75.3981 38.6945 76.2482 38.2046C75.9008 38.4034 75.5473 38.5893 75.1993 38.7575C74.2683 39.1667 73.6977 39.2787 73.3686 39.4212C73.2506 39.4707 73.1576 39.5147 73.0457 39.5576C73.3123 34.9225 74.0879 19.1481 78.7236 16.3309C80.3371 15.2391 82.0002 14.2336 83.4828 13.5448C85.9153 12.4341 87.3735 12.335 87.5967 13.0488C87.6524 13.1479 87.6775 13.3032 87.6836 13.5204C87.6714 12.3974 87.6652 11.2744 87.6652 10.1508C87.6591 9.67923 87.6096 9.30062 87.4977 9.03394C86.6909 7.05404 84.1342 7.44488 81.1121 8.85411C79.4307 9.6358 77.6 10.7404 75.8562 11.9258C68.062 17.2123 67.9629 36.9458 67.7457 40.0609C67.7335 40.1704 67.7396 40.2762 67.7519 40.3692Z" fill="#C1BBCB"/>
<path d="M75.8564 11.9234C77.6002 10.738 79.4308 9.63339 81.1123 8.8517C84.1344 7.44308 86.6911 7.05224 87.4978 9.03153C87.5143 9.07006 87.5266 9.11655 87.54 9.15997C86.3932 9.13734 84.9308 9.59241 83.3362 10.3362C81.6548 11.1179 79.8241 12.2225 78.0803 13.4079C70.5393 18.5231 70.2017 37.1618 69.9913 41.187C69.6946 41.2427 69.4121 41.2806 69.1613 41.2806C69.1552 41.2806 69.1552 41.2806 69.1552 41.2806C69.0805 41.2616 69.0127 41.2555 68.9319 41.2684H68.9136C68.9136 41.2684 68.8946 41.2616 68.8824 41.2616C68.8487 41.2567 68.7974 41.247 68.7392 41.2335C68.2897 41.1638 67.9735 40.9625 67.8334 40.617C67.7967 40.5423 67.7679 40.4604 67.7527 40.368C67.7404 40.2744 67.7343 40.1692 67.7465 40.0579C67.9631 36.9434 68.0622 17.2105 75.8564 11.9234Z" fill="#CFC8D7"/>
<path d="M76.2471 38.2031C75.9669 38.3652 75.6874 38.5297 75.4079 38.6924C75.4085 38.6765 75.4097 38.6594 75.411 38.6441C75.6899 38.5047 75.97 38.3615 76.2471 38.2031Z" fill="#CFC8D7"/>
<path d="M83.4819 13.5434C81.998 14.2346 80.3386 15.234 78.7233 16.3294C73.7634 19.3388 73.2044 37.1609 72.9799 40.347C72.9799 40.347 74.3378 39.7005 75.8277 38.6919C77.5489 37.5267 79.0621 36.3517 79.9509 34.959C82.7534 30.7203 88.4387 14.5306 87.5964 13.0455C87.3726 12.3323 85.9132 12.432 83.4819 13.5434Z" fill="#ACA7B8"/>
<path d="M59.8449 7.44009C60.1213 7.12632 61.4737 5.96052 65.0977 7.51472C69.2373 9.294 72.5249 11.3858 72.9806 12.2525C73.309 12.8721 73.369 13.6575 73.2344 14.285C73.2344 14.3077 73.2271 14.3297 73.2191 14.3523C73.2191 14.367 73.2118 14.3823 73.2118 14.397C73.1818 14.5168 73.1445 14.6361 73.1145 14.7633C73.9066 13.6055 74.8106 12.6342 75.8566 11.9241C77.5973 10.7436 79.428 9.63774 81.1094 8.853L68.0856 1.14258C67.1589 1.57624 66.1803 2.10653 65.209 2.68882C64.4096 3.16774 63.6175 3.68275 62.8407 4.21304C61.6755 4.99718 60.6822 6.11037 59.8449 7.44009Z" fill="#DBD3E2"/>
<path d="M55.0415 28.8066C55.0415 29.1736 55.0538 29.5284 55.0721 29.877C55.2128 32.7884 55.7816 35.0026 56.956 36.5745C57.3291 36.9599 57.6838 37.3146 58.0875 37.6388C60.2895 39.2413 63.9838 40.6542 66.6078 41.0885C66.6139 41.0946 66.6322 41.0946 66.6322 41.0946C67.5191 41.1986 68.3877 41.272 68.9137 41.272C68.9076 41.272 68.8953 41.2659 68.877 41.2659C68.8342 41.2597 68.7914 41.2414 68.7363 41.2353C68.4733 41.1741 68.0329 41.0212 67.8311 40.6175C68.1124 40.2077 68.4794 38.7398 68.9014 36.6479C68.9504 36.4094 68.9993 36.1647 69.0482 35.914C70.192 30.0605 71.7028 20.2803 73.1157 14.7632C73.1463 14.6348 73.183 14.5186 73.2136 14.3962C73.2136 14.384 73.2197 14.3656 73.2197 14.3534C73.2258 14.3289 73.238 14.3045 73.238 14.2861C73.3726 13.6561 73.3114 12.8732 72.9811 12.2493C72.5285 11.3869 69.0544 8.83024 64.9135 7.05646C61.2865 5.49676 60.1243 7.12374 59.843 7.4418C59.8368 7.44791 59.8307 7.45403 59.8307 7.45403C59.8185 7.47238 59.8063 7.49073 59.794 7.50908C59.794 7.5152 59.7879 7.51519 59.794 7.52131C55.8673 11.8701 55.5614 20.3231 55.0966 25.9625V25.993C55.0477 26.99 55.0232 27.9258 55.0415 28.8066Z" fill="url(#paint7_linear_1817_866)"/>
<path d="M77.2788 28.7751C77.1136 30.8565 78.2855 31.9624 79.896 31.2449C81.5065 30.5274 82.9463 28.2582 83.1114 26.1768C83.2766 24.0954 82.1047 22.9895 80.4942 23.707C78.8837 24.4244 77.4439 26.6936 77.2788 28.7751Z" fill="#323142"/>
<path d="M77.8517 28.804C77.7018 30.6916 78.7649 31.6947 80.2255 31.0439C81.6861 30.3931 82.9913 28.3355 83.1412 26.448C83.291 24.5604 82.228 23.5573 80.7674 24.2081C79.3074 24.8583 78.0015 26.9159 77.8517 28.804Z" fill="#323142"/>
<path d="M79.1227 28.5221C79.0279 29.7185 79.7013 30.3533 80.6267 29.9411C81.5521 29.5288 82.3797 28.2248 82.4745 27.029C82.5693 25.8333 81.8959 25.1978 80.9705 25.61C80.0444 26.0217 79.2175 27.3257 79.1227 28.5221Z" fill="#64CFFF"/>
<path d="M79.5296 28.3422C79.458 29.2481 79.9681 29.7294 80.6691 29.4175C81.37 29.105 81.9969 28.1171 82.0685 27.2113C82.1401 26.3054 81.63 25.8241 80.929 26.136C80.2281 26.448 79.6011 27.4358 79.5296 28.3422Z" fill="#ACA7B8"/>
<path d="M86.258 102.432C85.4366 102.56 84.7998 103.839 84.8353 105.289C84.8708 106.739 85.565 107.811 86.3864 107.684C87.2073 107.556 87.8446 106.277 87.8091 104.827C87.7737 103.377 87.0794 102.304 86.258 102.432Z" fill="#323142"/>
<path d="M86.0179 103.452C85.5133 103.53 85.1224 104.316 85.1445 105.206C85.1665 106.097 85.5928 106.756 86.0968 106.677C86.6008 106.598 86.9922 105.813 86.9708 104.922C86.9488 104.031 86.5225 103.373 86.0179 103.452Z" fill="#A8A4B5"/>
<path d="M86.5496 47.4582C91.1755 43.6385 94.6802 46.9151 96.1384 51.6376C97.5966 56.3601 100.958 89.2166 98.818 92.1311C96.6779 95.0449 88.2714 93.8106 87.3588 87.0984C86.4469 80.3862 84.103 73.1743 83.2015 64.7605C82.9409 62.3279 82.7782 58.2813 83.0376 56.0898C83.6749 50.7012 85.6933 48.1653 86.5496 47.4582Z" fill="url(#paint8_linear_1817_866)"/>
<path d="M83.0378 56.0895C83.1424 55.2081 83.2862 54.4099 83.4531 53.6766C84.1284 63.4054 90.5972 87.4407 90.5972 87.4407L94.8316 88.1881C97.8207 87.9392 97.8207 88.4419 97.447 83.3647C97.0733 78.2874 96.1393 65.0874 95.0805 57.9263C94.1827 51.8514 93.8579 48.258 91.9012 46.0469C93.8511 46.7833 95.3185 48.9816 96.1387 51.6379C97.5969 56.3605 100.958 89.2169 98.8177 92.1308C96.6769 95.0447 88.2711 93.8104 87.3591 87.0982C86.4465 80.3859 84.1027 73.1746 83.2018 64.7602C82.9418 62.3271 82.7785 58.2804 83.0378 56.0895Z" fill="#A8A4B5"/>
<path d="M87.0743 85.143C87.0713 84.4371 90.0054 82.7141 93.6012 83.6248C97.1971 84.5356 98.4632 86.4476 98.8736 88.3413C99.284 90.2355 99.1538 91.2594 98.818 92.131C98.744 92.3231 97.6405 93.7922 95.0955 93.613C92.5504 93.4344 86.9214 92.9396 87.0743 85.143Z" fill="#817C94"/>
<path d="M88.0604 84.6214C90.4299 83.3669 93.5462 83.8018 95.6368 84.8361C97.2467 85.6318 98.4088 87.1346 98.6296 88.917C98.7226 89.6662 98.711 90.4308 98.6957 91.2645C98.6608 93.1789 95.5922 94.2377 91.9896 95.5766C88.387 96.9149 72.2083 101.788 70.1275 102.076C68.0467 102.363 66.3451 98.6899 67.279 96.1209L68.6797 94.8597L88.0604 84.6214Z" fill="url(#paint9_linear_1817_866)"/>
<path d="M67.3826 99.7152C68.163 99.5262 68.664 99.4216 68.664 99.4216C68.664 99.4216 87.5773 92.888 90.7842 91.6739C93.7929 90.535 97.3496 89.7233 97.7361 86.6309C98.2071 87.3012 98.5258 88.0756 98.6298 88.916C98.7221 89.6652 98.7111 90.4292 98.6958 91.2635C98.661 93.1779 95.5923 94.2367 91.9897 95.575C88.3871 96.9139 72.2085 101.787 70.1276 102.075C68.96 102.237 67.9129 101.152 67.3826 99.7152Z" fill="#9F9BAB"/>
<path d="M67.1851 96.5954C67.7141 95.21 68.2126 95.2877 68.6016 95.4277C68.9906 95.5678 70.2672 96.4241 70.0494 99.0548C69.8317 101.685 69.4335 101.92 69.1417 101.92C68.8506 101.919 67.4181 100.954 67.2468 100.035C67.0762 99.1172 67.1851 96.5954 67.1851 96.5954Z" fill="#817C94"/>
<path d="M56.9286 98.7513C59.0143 97.2143 61.6591 96.328 63.9008 96.1414C66.1424 95.9549 69.1542 96.5512 69.2478 98.7513C69.3413 100.951 68.9034 102.539 67.3829 102.819C65.8623 103.1 60.8823 104.093 59.3635 103.814C57.8454 103.535 55.9928 99.4407 56.9286 98.7513Z" fill="#DBD3E2"/>
<path d="M50.7868 97.8552C50.8101 97.8589 56.5369 98.536 57.0599 98.6583C57.5828 98.78 58.3437 100.362 58.1566 100.953C57.97 101.545 58.997 102.371 55.7981 101.919C52.5991 101.467 49.0033 99.7617 48.7464 99.4235C48.4895 99.0852 47.643 97.35 50.7868 97.8552Z" fill="url(#paint10_linear_1817_866)"/>
<path d="M50.6578 97.834C51.5398 98.0872 51.9759 98.4762 52.0383 99.1924C52.1007 99.9087 51.9606 100.802 51.9606 100.802H58.1816C58.1816 100.802 58.1407 99.675 57.7829 99.146C57.425 98.6169 57.2923 98.6811 56.7632 98.6059C56.2335 98.5294 50.6578 97.834 50.6578 97.834Z" fill="#323142"/>
<path d="M50.334 99.4232C52.372 100.031 56.4639 100.377 57.1924 100.492C57.9208 100.608 57.9221 99.3474 58.8181 100.603C59.0903 100.985 60.3203 102.979 58.6713 103.094C57.0223 103.21 53.9402 102.953 51.3248 101.949C48.7094 100.945 48.0097 101.077 48.4477 99.9878C48.8862 98.8984 50.334 99.4232 50.334 99.4232Z" fill="url(#paint11_linear_1817_866)"/>
<path d="M52.2086 99.8359L57.4675 100.483L58.5294 100.16C58.5294 100.16 59.4474 100.752 59.7123 102.648C59.8279 103.473 58.856 103.427 57.922 103.473C56.988 103.519 52.4967 102.826 50.9608 101.807C52.8478 101.743 52.2086 99.8359 52.2086 99.8359Z" fill="#323142"/>
<path d="M63.5228 96.9665C65.4727 95.3169 67.6771 95.6215 68.3988 95.9084C69.1212 96.1959 69.5053 96.8253 69.5127 98.1727C69.5194 99.5202 68.7194 99.7196 67.5939 99.9312C66.4685 100.143 61.3386 101.419 60.3386 101.295C59.3391 101.17 57.9379 99.6443 59.5569 98.8039C61.1765 97.9635 63.5228 96.9665 63.5228 96.9665Z" fill="#323142"/>
<path d="M59.8155 98.0878C61.3874 97.9465 62.7642 99.3759 62.4994 100.802C62.2345 102.229 58.3432 101.637 57.9695 101.544C57.5958 101.45 55.3107 98.4927 59.8155 98.0878Z" fill="url(#paint12_linear_1817_866)"/>
<path d="M31.1606 62.7269C32.5851 63.3104 35.3755 64.7233 36.8232 67.4787C25.709 63.4394 15.3881 59.361 15.3881 59.361C15.3881 59.361 15.6994 57.9597 15.1544 57.1113L31.1606 62.7269Z" fill="url(#paint13_linear_1817_866)"/>
<path d="M64.6794 26.8005L68.2349 28.8514C68.3217 28.6795 68.3884 28.4685 68.4269 28.2477C68.6471 27.0018 67.9957 25.5063 66.97 24.9222C65.9449 24.3276 64.9289 24.8549 64.7081 26.1002C64.6702 26.3308 64.6604 26.5614 64.6794 26.8005Z" fill="#64CFFF"/>
<path d="M56.8054 22.2556L60.3609 24.3064C60.4471 24.134 60.5144 23.9235 60.5529 23.7027C60.7731 22.4568 60.1217 20.9613 59.096 20.3772C58.0709 19.7827 57.0549 20.3099 56.8341 21.5559C56.7962 21.7858 56.7864 22.0164 56.8054 22.2556Z" fill="#64CFFF"/>
<path d="M55.0411 28.8086C55.0411 29.1756 55.0534 29.5303 55.0717 29.879C55.7323 30.4478 56.503 30.8882 57.3532 31.3775L57.8364 31.6589C58.2095 31.8729 58.448 32.2705 58.4541 32.6987L58.4725 33.6039C58.4847 34.2156 58.8272 34.7905 59.3594 35.1024L59.6652 35.2798C60.0138 35.4755 60.4297 35.4755 60.7723 35.2798C61.1209 35.078 61.3289 34.7171 61.3289 34.3195V31.7506C61.3289 31.561 61.4512 31.4693 61.5062 31.4387C61.5613 31.4081 61.7081 31.3469 61.8671 31.4387L62.3625 31.7261C62.7357 31.9402 62.962 32.3194 62.9803 32.7476L62.9987 33.3042C63.017 33.9587 63.3962 34.5397 63.9773 34.8272C65.3657 35.5122 67.3352 36.2951 68.9011 36.6499C68.95 36.4114 68.9989 36.1667 69.0479 35.9159C67.5493 35.5734 65.6043 34.7966 64.3076 34.1605C63.9712 33.9954 63.7571 33.659 63.7449 33.2736L63.7265 32.7231C63.7021 32.0381 63.3351 31.4203 62.7357 31.0778L62.2402 30.7903C61.8977 30.5885 61.4818 30.5885 61.1331 30.7903C60.7845 30.9922 60.5827 31.3469 60.5827 31.7506V34.3195C60.5827 34.5091 60.4542 34.6009 60.3992 34.6315C60.3441 34.6621 60.2034 34.7232 60.0383 34.6315L59.7325 34.4541C59.4267 34.2767 59.2309 33.9403 59.2187 33.5856L59.2003 32.6864C59.1881 31.9953 58.8089 31.3592 58.2156 31.0105L57.7263 30.7292C56.6253 30.0931 55.7201 29.5793 55.0411 28.8086Z" fill="#64CFFF"/>
<path d="M59.7858 7.515C59.7858 7.515 59.7858 7.515 59.793 7.52279C59.7858 7.515 59.793 7.515 59.793 7.50781C59.7858 7.515 59.7858 7.515 59.7858 7.515Z" fill="#4C4A5B"/>
<path d="M60.5449 49.4916C68.3783 52.625 72.7203 56.2509 71.4671 64.2182C70.2138 72.1861 66.3525 76.7105 63.8166 76.152C61.2807 75.5942 56.8854 68.7731 54.8566 60.5367C52.8265 52.3009 54.445 47.0517 60.5449 49.4916Z" fill="#323142"/>
<path d="M60.8316 50.7785C67.8735 53.5951 71.7764 56.8546 70.6498 64.017C69.5231 71.1793 66.052 75.2462 63.7724 74.7446C61.4928 74.2431 57.5422 68.1113 55.7176 60.708C53.8931 53.3046 55.3488 48.5851 60.8316 50.7785Z" fill="#323142"/>
<path d="M96.7167 85.6931L97.0537 85.6674C97.0409 85.4998 95.7674 68.8752 94.9362 62.7582C94.7998 61.7551 94.6873 60.7605 94.5784 59.799C94.0157 54.8392 93.4848 50.1533 89.8491 45.7012L89.5873 45.9152C93.1606 50.291 93.686 54.9279 94.2426 59.8376C94.3521 60.8015 94.4646 61.7979 94.6016 62.804C95.4322 68.9107 96.7045 85.5255 96.7167 85.6931Z" fill="#817C94"/>
<path d="M69.9127 99.5836C69.9842 99.5622 77.1099 97.4465 83.7237 95.1559C84.9439 94.7332 86.0522 94.3729 87.1238 94.0249C88.6009 93.5448 89.9967 93.0909 91.4971 92.5349C92.9681 91.9894 93.4378 91.097 93.6892 89.9244C93.7565 89.6119 93.7797 89.3195 93.8024 89.0363C93.8966 87.8534 93.9712 86.9194 97.4912 85.9842L97.4037 85.6582C93.6531 86.6546 93.5663 87.7457 93.466 89.0094C93.4446 89.2816 93.4219 89.563 93.3595 89.8535C93.1241 90.9483 92.7112 91.7257 91.3802 92.2187C89.886 92.7723 88.4933 93.2249 87.0192 93.7044C85.9464 94.0531 84.8375 94.4139 83.6136 94.8378C77.0066 97.126 69.8888 99.2398 69.8173 99.2606L69.9127 99.5836Z" fill="#817C94"/>
<path d="M34.357 70.0509C34.9681 70.0509 35.4929 69.9152 35.9271 69.6448C36.71 69.1567 36.9315 68.3891 36.9792 68.1775L37.9395 67.1793L37.696 66.945L36.6654 68.0166L36.6562 68.0686C36.655 68.0765 36.51 68.887 35.7436 69.3616C35.0311 69.8032 34.0188 69.8301 32.7374 69.4417C29.0865 68.3371 14.2914 61.3399 14.1427 61.2695L13.9984 61.5747C14.1476 61.6457 28.9654 68.6533 32.6401 69.7653C33.2708 69.9549 33.8439 70.0509 34.357 70.0509Z" fill="#817C94"/>
<path d="M89.8418 84.1876C93.1459 83.5228 95.3466 84.8959 96.2861 85.4489C92.0597 87.2232 70.2202 97.1705 70.2202 97.1705C70.2202 97.1705 70.0642 96.4542 69.6599 95.8787C69.255 95.3025 68.6122 95.1471 68.6122 95.1471L89.8418 84.1876Z" fill="url(#paint14_linear_1817_866)"/>
<path d="M60.8314 50.7783C62.5036 51.4474 63.9918 52.1435 65.2842 52.9093C61.988 57.5107 61.0014 63.9507 62.0951 73.6588C59.8809 71.5174 57.1474 66.5117 55.7174 60.7084C53.8935 53.3038 55.3486 48.5856 60.8314 50.7783Z" fill="#403F54"/>
<path d="M73.2202 14.3539C73.2275 14.3239 73.2355 14.3013 73.2422 14.2793C73.2422 14.2793 73.2422 14.2793 73.2349 14.2866C73.2355 14.3093 73.2275 14.3313 73.2202 14.3539Z" fill="#4C4A5B"/>
<defs>
<linearGradient id="paint0_linear_1817_866" x1="69.1911" y1="101.592" x2="48.4767" y2="102.467" gradientUnits="userSpaceOnUse">
<stop offset="0.2633" stop-color="#A8A4B5"/>
<stop offset="0.8514" stop-color="#DBD3E2"/>
</linearGradient>
<linearGradient id="paint1_linear_1817_866" x1="64.5703" y1="113.759" x2="66.8586" y2="99.7493" gradientUnits="userSpaceOnUse">
<stop offset="0.2633" stop-color="#A8A4B5"/>
<stop offset="0.8514" stop-color="#DBD3E2"/>
</linearGradient>
<linearGradient id="paint2_linear_1817_866" x1="89.4692" y1="108.332" x2="67.7348" y2="110.062" gradientUnits="userSpaceOnUse">
<stop offset="0.2633" stop-color="#A8A4B5"/>
<stop offset="0.8514" stop-color="#DBD3E2"/>
</linearGradient>
<linearGradient id="paint3_linear_1817_866" x1="51.6518" y1="53.8964" x2="39.9192" y2="46.4813" gradientUnits="userSpaceOnUse">
<stop offset="0.0542" stop-color="#A8A4B5"/>
<stop offset="0.1755" stop-color="#B6B1C1"/>
<stop offset="0.4042" stop-color="#CBC4D3"/>
<stop offset="0.6308" stop-color="#D7CFDE"/>
<stop offset="0.8514" stop-color="#DBD3E2"/>
</linearGradient>
<linearGradient id="paint4_linear_1817_866" x1="23.7727" y1="69.8939" x2="27.5505" y2="60.2845" gradientUnits="userSpaceOnUse">
<stop offset="0.2633" stop-color="#A8A4B5"/>
<stop offset="0.8514" stop-color="#DBD3E2"/>
</linearGradient>
<linearGradient id="paint5_linear_1817_866" x1="72.9626" y1="42.2492" x2="62.0119" y2="75.0679" gradientUnits="userSpaceOnUse">
<stop offset="0.1486" stop-color="#DBD3E2"/>
<stop offset="0.7367" stop-color="#C2BCCC"/>
</linearGradient>
<linearGradient id="paint6_linear_1817_866" x1="54.9108" y1="19.502" x2="67.119" y2="2.46045" gradientUnits="userSpaceOnUse">
<stop offset="0.2633" stop-color="#A8A4B5"/>
<stop offset="0.8514" stop-color="#DBD3E2"/>
</linearGradient>
<linearGradient id="paint7_linear_1817_866" x1="56.9183" y1="37.0451" x2="72.0195" y2="10.889" gradientUnits="userSpaceOnUse">
<stop offset="0.3489" stop-color="#323142"/>
<stop offset="0.7368" stop-color="#4D4B5C"/>
</linearGradient>
<linearGradient id="paint8_linear_1817_866" x1="98.6904" y1="68.9452" x2="83.9731" y2="70.8508" gradientUnits="userSpaceOnUse">
<stop offset="0.0542" stop-color="#A8A4B5"/>
<stop offset="0.1755" stop-color="#B6B1C1"/>
<stop offset="0.4042" stop-color="#CBC4D3"/>
<stop offset="0.6308" stop-color="#D7CFDE"/>
<stop offset="0.8514" stop-color="#DBD3E2"/>
</linearGradient>
<linearGradient id="paint9_linear_1817_866" x1="86.2678" y1="99.6507" x2="79.7964" y2="88.4418" gradientUnits="userSpaceOnUse">
<stop offset="0.2633" stop-color="#A8A4B5"/>
<stop offset="0.8514" stop-color="#DBD3E2"/>
</linearGradient>
<linearGradient id="paint10_linear_1817_866" x1="53.3488" y1="99.0327" x2="53.2139" y2="102.761" gradientUnits="userSpaceOnUse">
<stop offset="0.0439" stop-color="#DBD3E2"/>
<stop offset="0.1486" stop-color="#DBD3E2"/>
<stop offset="0.8698" stop-color="#CAC3D3"/>
</linearGradient>
<linearGradient id="paint11_linear_1817_866" x1="53.9549" y1="100.458" x2="53.8362" y2="103.735" gradientUnits="userSpaceOnUse">
<stop offset="0.0439" stop-color="#DBD3E2"/>
<stop offset="0.1486" stop-color="#DBD3E2"/>
<stop offset="0.8698" stop-color="#CAC3D3"/>
</linearGradient>
<linearGradient id="paint12_linear_1817_866" x1="59.9981" y1="101.927" x2="59.5449" y2="97.8863" gradientUnits="userSpaceOnUse">
<stop offset="0.1486" stop-color="#DBD3E2"/>
<stop offset="0.8698" stop-color="#CAC3D3"/>
</linearGradient>
<linearGradient id="paint13_linear_1817_866" x1="30.2542" y1="75.1744" x2="24.6503" y2="59.2965" gradientUnits="userSpaceOnUse">
<stop offset="0.2633" stop-color="#CBC4D4"/>
<stop offset="0.8514" stop-color="#DBD3E2"/>
</linearGradient>
<linearGradient id="paint14_linear_1817_866" x1="92.6824" y1="99.4706" x2="82.0349" y2="90.2552" gradientUnits="userSpaceOnUse">
<stop offset="0.2633" stop-color="#CBC4D4"/>
<stop offset="0.8514" stop-color="#DBD3E2"/>
</linearGradient>
</defs>
</svg>
