<svg width="20" height="22" viewBox="0 0 20 22" fill="none" xmlns="http://www.w3.org/2000/svg">
<path d="M9.33715 0.310704C9.74697 0.0716375 10.2537 0.0716373 10.6636 0.310703L18.8243 5.0711C19.2286 5.30699 19.4773 5.7399 19.4773 6.20804V15.7524C19.4773 16.2206 19.2286 16.6535 18.8243 16.8894L10.6636 21.6498C10.2537 21.8888 9.74697 21.8888 9.33715 21.6498L1.17646 16.8894C0.77209 16.6535 0.523438 16.2206 0.523438 15.7524V6.20804C0.523438 5.7399 0.77209 5.30699 1.17646 5.0711L9.33715 0.310704Z" fill="url(#paint0_linear_1964_2070)"/>
<g filter="url(#filter0_i_1964_2070)">
<path d="M9.70065 3.93275C9.90594 3.81263 10.1601 3.81263 10.3654 3.93275L15.8936 7.16733C16.0953 7.28539 16.2193 7.5016 16.2193 7.73537V14.2198C16.2193 14.4536 16.0953 14.6698 15.8936 14.7879L10.3654 18.0224C10.1601 18.1426 9.90594 18.1426 9.70065 18.0224L4.17244 14.7879C3.97068 14.6698 3.84668 14.4536 3.84668 14.2198V7.73537C3.84668 7.5016 3.97068 7.28539 4.17244 7.16733L9.70065 3.93275Z" fill="url(#paint1_radial_1964_2070)"/>
<path d="M9.70065 3.93275C9.90594 3.81263 10.1601 3.81263 10.3654 3.93275L15.8936 7.16733C16.0953 7.28539 16.2193 7.5016 16.2193 7.73537V14.2198C16.2193 14.4536 16.0953 14.6698 15.8936 14.7879L10.3654 18.0224C10.1601 18.1426 9.90594 18.1426 9.70065 18.0224L4.17244 14.7879C3.97068 14.6698 3.84668 14.4536 3.84668 14.2198V7.73537C3.84668 7.5016 3.97068 7.28539 4.17244 7.16733L9.70065 3.93275Z" fill="url(#paint2_radial_1964_2070)" fill-opacity="0.29"/>
<path d="M9.70065 3.93275C9.90594 3.81263 10.1601 3.81263 10.3654 3.93275L15.8936 7.16733C16.0953 7.28539 16.2193 7.5016 16.2193 7.73537V14.2198C16.2193 14.4536 16.0953 14.6698 15.8936 14.7879L10.3654 18.0224C10.1601 18.1426 9.90594 18.1426 9.70065 18.0224L4.17244 14.7879C3.97068 14.6698 3.84668 14.4536 3.84668 14.2198V7.73537C3.84668 7.5016 3.97068 7.28539 4.17244 7.16733L9.70065 3.93275Z" fill="url(#paint3_linear_1964_2070)" fill-opacity="0.2" style="mix-blend-mode:multiply"/>
</g>
<path d="M10.6313 3.47832C10.2617 3.26211 9.80429 3.26211 9.43476 3.47832L3.90655 6.71291C3.54338 6.9254 3.32018 7.3146 3.32018 7.73537V14.2198C3.32018 14.6406 3.54338 15.0298 3.90655 15.2423L9.43476 18.4769C9.80429 18.6931 10.2617 18.6931 10.6312 18.4769L16.1595 15.2423C16.5226 15.0298 16.7458 14.6406 16.7458 14.2198V7.73537C16.7458 7.3146 16.5226 6.9254 16.1595 6.71291L10.6313 3.47832Z" stroke="url(#paint4_linear_1964_2070)" stroke-width="1.05299"/>
<path opacity="0.42" d="M10.8712 2.95159C10.3188 2.6302 9.63638 2.6302 9.08399 2.95159L3.55579 6.168C3.00891 6.48618 2.67247 7.07117 2.67247 7.70388V14.1596C2.67247 14.7923 3.00891 15.3773 3.55579 15.6955L9.08399 18.9119C9.63638 19.2333 10.3188 19.2333 10.8712 18.9119L16.3994 15.6955C16.9463 15.3773 17.2827 14.7923 17.2827 14.1596V7.70388C17.2827 7.07117 16.9463 6.48618 16.3994 6.168L10.8712 2.95159Z" stroke="url(#paint5_linear_1964_2070)" stroke-width="0.131624"/>
<path d="M9.87776 15.4923H7V7H9.93582C10.779 7 11.5032 7.17001 12.1087 7.51004C12.7168 7.8473 13.184 8.33245 13.5102 8.9655C13.8364 9.59856 13.9995 10.356 13.9995 11.2379C13.9995 12.1225 13.835 12.8827 13.5061 13.5185C13.1799 14.1543 12.7085 14.6422 12.0921 14.9823C11.4784 15.3223 10.7403 15.4923 9.87776 15.4923ZM8.5384 14.1612H9.80312C10.3947 14.1612 10.8882 14.0534 11.2835 13.8378C11.6788 13.6194 11.976 13.2946 12.175 12.8633C12.374 12.4293 12.4736 11.8875 12.4736 11.2379C12.4736 10.5882 12.374 10.0492 12.175 9.62067C11.976 9.18942 11.6816 8.86737 11.2918 8.65451C10.9047 8.43888 10.4237 8.33107 9.84874 8.33107H8.5384V14.1612Z" fill="url(#paint6_linear_1964_2070)"/>
<defs>
<filter id="filter0_i_1964_2070" x="2.79395" y="2.78906" width="14.4785" height="16.377" filterUnits="userSpaceOnUse" color-interpolation-filters="sRGB">
<feFlood flood-opacity="0" result="BackgroundImageFix"/>
<feBlend mode="normal" in="SourceGraphic" in2="BackgroundImageFix" result="shape"/>
<feColorMatrix in="SourceAlpha" type="matrix" values="0 0 0 0 0 0 0 0 0 0 0 0 0 0 0 0 0 0 127 0" result="hardAlpha"/>
<feOffset/>
<feGaussianBlur stdDeviation="2.96154"/>
<feComposite in2="hardAlpha" operator="arithmetic" k2="-1" k3="1"/>
<feColorMatrix type="matrix" values="0 0 0 0 0.203922 0 0 0 0 0.176471 0 0 0 0 0.478431 0 0 0 1 0"/>
<feBlend mode="normal" in2="shape" result="effect1_innerShadow_1964_2070"/>
</filter>
<linearGradient id="paint0_linear_1964_2070" x1="4.1431" y1="1.4375" x2="12.6987" y2="20.9178" gradientUnits="userSpaceOnUse">
<stop stop-color="#A0D9F9"/>
<stop offset="1" stop-color="#5989D2"/>
</linearGradient>
<radialGradient id="paint1_radial_1964_2070" cx="0" cy="0" r="1" gradientUnits="userSpaceOnUse" gradientTransform="translate(10.033 11.2979) rotate(90) scale(11.7756 10.1818)">
<stop stop-color="#0261A6"/>
<stop offset="1" stop-color="#053D90"/>
</radialGradient>
<radialGradient id="paint2_radial_1964_2070" cx="0" cy="0" r="1" gradientUnits="userSpaceOnUse" gradientTransform="translate(7.14186 8.53574) rotate(-48.4041) scale(7.28983 3.84326)">
<stop stop-color="white"/>
<stop offset="1" stop-color="white" stop-opacity="0"/>
</radialGradient>
<linearGradient id="paint3_linear_1964_2070" x1="10.033" y1="3.73828" x2="10.033" y2="18.8576" gradientUnits="userSpaceOnUse">
<stop stop-color="#6FB1D6" stop-opacity="0"/>
<stop offset="0.0001" stop-color="#30297A" stop-opacity="0"/>
<stop offset="1" stop-color="#095A88"/>
</linearGradient>
<linearGradient id="paint4_linear_1964_2070" x1="4.27745" y1="20.2306" x2="17.3404" y2="0.201397" gradientUnits="userSpaceOnUse">
<stop stop-color="#7BBDE2"/>
<stop offset="1" stop-color="#5989D2"/>
</linearGradient>
<linearGradient id="paint5_linear_1964_2070" x1="5.5033" y1="3.66109" x2="12.0103" y2="18.5157" gradientUnits="userSpaceOnUse">
<stop stop-color="#A0D9F9"/>
<stop offset="1" stop-color="#5989D2"/>
</linearGradient>
<linearGradient id="paint6_linear_1964_2070" x1="8.33671" y1="7.58132" x2="11.7092" y2="14.9653" gradientUnits="userSpaceOnUse">
<stop stop-color="#A0D9F9"/>
<stop offset="1" stop-color="#5989D2"/>
</linearGradient>
</defs>
</svg>
